<svg width="53" height="34" viewBox="0 0 53 34" fill="none" xmlns="http://www.w3.org/2000/svg">
<path d="M34.306 4.84816L34.8948 1.00232C44.1056 1.4195 48.0219 4.65261 48.8287 6.21702C46.6307 4.44402 38.2311 4.5657 34.306 4.84816Z" fill="white"/>
<path d="M37.7077 0.415671C40.826 0.524311 48.0568 2.14956 52.0342 7.78143C51.8815 5.21754 48.8026 0.154937 37.7077 0.415671Z" fill="white"/>
<path d="M25.5014 33.4264H17.3488L22.7995 12.3015C13.8219 9.58022 6.28398 9.90339 0 11.2073C3.21075 9.37713 12.3359 7.25754 23.2816 10.4333L23.5436 9.41783C17.6001 7.88996 10.588 7.17249 2.34796 9.1222C5.65094 7.67853 14.5896 5.37807 24.2843 6.54692L24.9144 4.10499H21.7186L25.5014 0H32.7409L31.0187 7.95186C31.3541 8.05432 31.6891 8.16202 32.0235 8.27514C38.0586 10.3168 45.2634 14.5304 52.3725 10.8815C51.9377 12.4453 48.981 15.7684 42.7198 15.5077C39.4612 15.3721 35.3547 13.4293 30.2403 11.5462L29.9608 12.8366C38.0924 15.9459 42.9166 17.4766 49.6984 15.5077C48.1983 17.5059 42.3477 21.2509 32.7409 16.3548C31.6532 15.8004 30.5831 15.2905 29.5307 14.8225L25.5014 33.4264Z" fill="white"/>
</svg>
